<svg xmlns="http://www.w3.org/2000/svg" viewBox="0 0 1440 320"><path fill="#419a48" fill-opacity="0.7" d="M0,96L34.3,128C68.6,160,137,224,206,213.3C274.3,203,343,117,411,96C480,75,549,117,617,160C685.7,203,754,245,823,240C891.4,235,960,181,1029,154.7C1097.1,128,1166,128,1234,138.7C1302.9,149,1371,171,1406,181.3L1440,192L1440,320L1405.7,320C1371.4,320,1303,320,1234,320C1165.7,320,1097,320,1029,320C960,320,891,320,823,320C754.3,320,686,320,617,320C548.6,320,480,320,411,320C342.9,320,274,320,206,320C137.1,320,69,320,34,320L0,320Z"></path></svg>